<?xml version="1.0" encoding="UTF-8" standalone="no"?>
<!-- Created with Inkscape (http://www.inkscape.org/) -->

<svg
   width="41.829399mm"
   height="41.829411mm"
   viewBox="0 0 41.829399 41.829411"
   version="1.1"
   id="svg1"
   xml:space="preserve"
   xmlns="http://www.w3.org/2000/svg"
   xmlns:svg="http://www.w3.org/2000/svg"><defs
     id="defs1" /><g
     id="layer1"
     transform="translate(-92.109574,-133.21897)"><g
       id="g49"
       transform="matrix(0.31226911,0,0,0.31226911,78.94924,104.94606)"><ellipse
         style="display:inline;opacity:1;fill:#268986;fill-opacity:1;stroke-width:0.327703;stroke-linecap:round;stroke-linejoin:round"
         id="path8"
         cx="109.12073"
         cy="159.51192"
         rx="63.637974"
         ry="64.751808" /><path
         id="path1"
         style="display:inline;opacity:1;fill:#000000;stroke:#000000;stroke-width:6.61458;stroke-linecap:round;stroke-linejoin:bevel"
         d="m 109.12099,93.847502 a 63.669144,63.669144 0 0 0 -63.669501,63.668978 63.669144,63.669144 0 0 0 63.669501,63.6695 63.669144,63.669144 0 0 0 63.66898,-63.6695 63.669144,63.669144 0 0 0 -63.66898,-63.668978 z m 0,0.912605 a 62.756702,62.756702 0 0 1 62.75637,62.756373 62.756702,62.756702 0 0 1 -62.75637,62.7569 62.756702,62.756702 0 0 1 -62.756895,-62.7569 62.756702,62.756702 0 0 1 62.756895,-62.756373 z" /><g
         id="g7"
         style="display:inline;opacity:1"><path
           id="rect1"
           style="fill:#00c993;fill-rule:evenodd;stroke-width:0.24642"
           d="m 77.527988,189.76205 h 5.921639 c 1.225453,0 2.212008,0.8705 2.212008,1.95178 v 13.89199 c 0,1.08128 -0.202132,2.55889 -1.301181,2.01683 l -4.880694,-2.40719 c -1.099049,-0.54205 -4.15639,-2.23675 -4.163781,-3.31801 l -0.06901,-10.09556 c -0.0074,-1.08125 1.055562,-2.03984 2.281015,-2.03984 z" /><path
           id="rect4"
           style="fill:#00c993;fill-rule:evenodd;stroke-width:0.264583"
           d="m 91.311398,181.91448 h 6.403204 c 0.865025,0 1.564144,0.89951 1.561418,2.01683 l -0.06506,26.66525 c -0.0027,1.11731 -0.664669,1.99441 -1.496359,1.75659 l -6.142968,-1.7566 c -0.831691,-0.23782 -1.549622,-0.89957 -1.561418,-2.01683 l -0.260236,-24.64841 c -0.0118,-1.11726 0.696392,-2.01683 1.561419,-2.01683 z" /><path
           id="path4"
           style="fill:#00c993;fill-rule:evenodd;stroke-width:0.300979"
           d="m 105.49428,174.62786 h 6.4032 c 0.86503,0 1.56142,1.164 1.56142,2.60986 l -4e-5,34.06524 c 0,1.44585 -0.606,2.28342 -1.49636,2.2731 l -6.01285,-0.0697 c -0.89035,-0.0104 -1.54185,-1.16416 -1.56141,-2.60986 l -0.45542,-33.65882 c -0.0196,-1.4457 0.69639,-2.60986 1.56142,-2.60986 z" /><path
           id="path5"
           style="fill:#00c993;fill-rule:evenodd;stroke-width:0.329308"
           d="m 119.80728,164.60876 h 6.4032 c 0.86503,0 1.57826,1.39351 1.56142,3.12428 l -0.39039,40.12913 c -0.0168,1.73076 -0.65414,2.43211 -1.49636,2.72115 l -6.01285,2.06355 c -0.84222,0.28904 -1.55872,-1.39352 -1.56141,-3.12428 l -0.0651,-41.78955 c -0.003,-1.73077 0.69639,-3.12428 1.56142,-3.12428 z" /><path
           id="path6"
           style="fill:#00c993;fill-rule:evenodd;stroke-width:0.338104"
           d="m 134.2504,156.15108 h 6.4032 c 0.86503,0 1.5728,1.46891 1.56142,3.29341 l -0.26027,41.71604 c -0.0114,1.8245 -0.72137,2.41952 -1.49636,2.86847 l -6.33815,3.67162 c -0.775,0.44895 -1.56669,-1.46897 -1.56141,-3.29342 l 0.13008,-44.96271 c 0.005,-1.82445 0.69639,-3.29341 1.56142,-3.29341 z" /><path
           id="path7"
           style="fill:#00c993;fill-rule:evenodd;stroke-width:0.365236"
           d="m 148.53539,139.1056 h 6.72604 c 0.90864,0 1.65209,1.63184 1.64014,3.65871 l -0.27339,46.34318 c -0.012,2.02686 -0.88523,2.52325 -1.57181,3.18664 l -6.88772,6.65509 c -0.78036,0.75401 -1.6329,0.62183 -1.64014,-3.65873 l -0.0888,-52.50992 c -0.003,-2.02681 0.73208,-3.62628 1.64015,-3.65871 z" /></g><g
         id="g3"
         transform="translate(-4.53735,49.477182)"
         style="display:inline;opacity:1;fill:#000000"><g
           id="g8"
           transform="matrix(0.68478559,0,0,0.68478559,53.258782,35.334824)"><path
             style="opacity:1;fill:#000000;stroke:#000000;stroke-width:6.61501;stroke-linecap:round;stroke-linejoin:round;stroke-dasharray:none;stroke-opacity:1"
             id="path2"
             d="M 144.95164,63.757903 156.95671,85.45277 132.16587,85.002027 Z"
             transform="matrix(0.60462465,0,0,0.60462465,66.706042,39.520168)" /><path
             id="rect3"
             style="fill:#000000;fill-rule:evenodd;stroke:#000000;stroke-width:0.305032;stroke-linecap:round;stroke-linejoin:round;paint-order:stroke fill markers"
             d="m 151.16357,89.628418 h 5.27219 c 0,0 0.22451,7.191245 0.0345,9.218877 -0.0521,0.55599 -0.78827,1.202395 -1.73665,1.007212 -0.80952,-0.1666 -3.13779,-0.806298 -3.43203,-1.495121 -0.58273,-1.364139 -0.13802,-8.730968 -0.13802,-8.730968 z" /></g></g><path
         style="display:inline;opacity:1;fill:#000000;stroke-width:0.441707;stroke-linecap:round;stroke-linejoin:round"
         d="m 108.54531,101.97724 a 55.32172,55.32172 0 0 0 -55.321685,55.32169 55.32172,55.32172 0 0 0 16.338537,39.05394 15.549256,16.377323 0 0 1 14.280266,-12.78371 15.549256,23.369888 0 0 1 11.937255,-8.57106 15.549256,23.369888 0 0 1 3.083016,0.47388 15.549256,23.369888 0 0 1 10.902181,-6.73034 15.549256,23.369888 0 0 1 2.63446,0.35191 15.549256,27.326208 0 0 1 11.71867,-9.5529 15.549256,27.326208 0 0 1 1.8619,0.20515 15.549256,30.270447 0 0 1 11.75535,-10.50995 15.549256,30.270447 0 0 1 1.43402,0.14263 15.549256,32.294609 0 0 1 13.83895,-17.8077 15.549256,32.294609 0 0 1 5.58519,2.16008 55.32172,55.32172 0 0 0 -50.04811,-31.75362 z"
         id="circle1" /><path
         id="path10"
         style="display:inline;opacity:1;fill:#ececec;stroke-width:0.400295;stroke-linecap:round;stroke-linejoin:round"
         d="m 108.32724,105.36204 a 50.135121,50.135121 0 0 0 -50.169033,50.10082 50.135121,50.135121 0 0 0 12.230778,32.50861 9.4986267,11.060043 32.619909 0 1 1.735812,-4.26434 9.4986267,11.060043 32.619909 0 1 13.60227,-4.38526 14.091461,14.841893 0.03881551 0 1 0.163298,-0.0326 14.091461,21.178882 0.03881551 0 1 10.823112,-7.76025 14.091461,21.178882 0.03881551 0 1 2.793627,0.4315 14.091461,21.178882 0.03881551 0 1 9.884156,-6.09265 14.091461,21.178882 0.03881551 0 1 2.38745,0.3204 14.091461,24.764283 0.03881551 0 1 10.6257,-8.65012 14.091461,24.764283 0.03881551 0 1 1.68724,0.18707 14.091461,27.43249 0.03881551 0 1 10.65981,-9.51725 14.091461,27.43249 0.03881551 0 1 1.29967,0.12971 14.091461,29.26688 0.03881551 0 1 5.63376,-12.2158 9.238389,19.517723 18.601463 0 1 9.02012,-7.2409 50.135121,50.135121 0 0 0 -42.37777,-23.51898 z" /><path
         style="opacity:1;fill:#000000;fill-opacity:1;stroke-width:0.3;stroke-linecap:round;stroke-linejoin:round"
         id="path39"
         d="M 85.474905,152.18029 62.324036,147.7938 59.341823,124.42051 80.649584,114.36152 96.800717,131.518 Z"
         transform="matrix(0.91157593,0,0,0.91157593,27.605052,14.712682)" /><path
         id="path40"
         style="opacity:1;stroke-width:0.273473;stroke-linecap:round;stroke-linejoin:round"
         d="m 133.74596,111.79111 -0.009,0.0258 21.47879,0.62218 z m -0.0274,0.0765 -7.22334,20.14192 12.32019,9.53224 c 1.46619,-3.33456 6.99484,-12.36792 12.23439,-12.63747 -3.32916,-6.2728 -11.94034,-13.84438 -17.33124,-17.03669 z" /><path
         id="path41"
         style="opacity:1;fill:#000000;stroke-width:0.3;stroke-linecap:round;stroke-linejoin:round"
         d="m 80.649506,114.36179 -21.307585,10.05862 1.197904,9.38888 c 5.123256,6.39353 10.419425,12.67604 18.524117,17.15629 l 6.4109,1.21454 1.919715,-3.5025 -0.06979,-0.0704 c 0.847226,-4.38681 2.841846,-7.39014 5.420099,-9.68952 l 4.056099,-7.39953 z"
         transform="matrix(0.84179068,0.34979871,-0.34979871,0.84179068,50.354306,34.997306)" /><path
         id="path42"
         style="opacity:1;stroke-width:0.3;stroke-linecap:round;stroke-linejoin:round"
         d="m 80.649436,114.36154 -16.417035,7.75042 c 0.664056,-0.12893 1.659454,-0.32098 1.659454,-0.32098 4.09314,-0.75172 8.059424,-0.57195 11.547339,3.12291 2.86004,-2.05113 5.879858,-3.64825 9.314028,-4.06893 z"
         transform="matrix(0.78944791,-0.45578796,0.45578796,0.78944791,-5.5161527,105.70612)" /><path
         id="path43"
         style="opacity:1;stroke-width:0.3;stroke-linecap:round;stroke-linejoin:round"
         d="m 71.653263,144.45794 c -3.362017,-1.91032 -6.820737,-3.45224 -10.355341,-4.70679 l 1.025873,8.04282 19.220111,3.64162 -0.07763,-0.0311 c -3.159391,-2.73955 -6.437419,-5.02854 -9.813013,-6.94658 z"
         transform="matrix(0.78944791,-0.45578796,0.45578796,0.78944791,-14.068551,20.659026)" /><path
         id="path44"
         style="opacity:1;stroke-width:0.273473;stroke-linecap:round;stroke-linejoin:round"
         d="m 74.163854,117.81395 -0.03927,0.34468 c -4.290877,3.96941 -7.364158,8.34442 -10.115145,12.82713 l 10.366292,-3.62459 z" /><rect
         style="fill:#000000;fill-opacity:1;fill-rule:evenodd;stroke-width:0.17321"
         id="rect45"
         width="0.55204457"
         height="14.537174"
         x="-17.839914"
         y="182.7025"
         transform="rotate(-39.863886)" /><rect
         style="fill:#000000;fill-opacity:1;fill-rule:evenodd;stroke-width:0.17321"
         id="rect46"
         width="0.55204457"
         height="14.537174"
         x="-160.75314"
         y="74.746658"
         transform="rotate(-105.25464)" /><rect
         style="fill:#000000;fill-opacity:1;fill-rule:evenodd;stroke-width:0.17321"
         id="rect47"
         width="0.55204457"
         height="14.537174"
         x="-116.19456"
         y="-107.60561"
         transform="rotate(-172.36851)" /><rect
         style="fill:#000000;fill-opacity:1;fill-rule:evenodd;stroke-width:0.17321"
         id="rect48"
         width="0.55204457"
         height="14.537174"
         x="116.49255"
         y="-101.47245"
         transform="rotate(97.317065)" /><rect
         style="fill:#000000;fill-opacity:1;fill-rule:evenodd;stroke-width:0.17321"
         id="rect49"
         width="0.55204457"
         height="14.537174"
         x="149.65527"
         y="81.098511"
         transform="rotate(31.489725)" /></g></g></svg>
